{"title":"Cavemen 2013 1080p.BluRay.5.1.x264 . NVEE","uid":12182782,"size":2017195893,"categoryP":"video","categoryS":"hd___movies","magnet":"?xt=urn:btih:f973eaa7a68ffdb32e5ba2375b70ad4513ceb033&amp;dn=Cavemen+2013+1080p.BluRay.5.1.x264+.+NVEE&amp;tr=udp%3A%2F%2Ftracker.openbittorrent.com%3A80&amp;tr=udp%3A%2F%2Fopen.demonii.com%3A1337&amp;tr=udp%3A%2F%2Ftracker.coppersurfer.tk%3A6969&amp;tr=udp%3A%2F%2Fexodus.desync.com%3A6969","seeders":19,"leechers":1,"uploader":".NVEE","files":1,"time":1438485395,"description":"\nQuick note : \n\nTrackers refresh never most current &amp; so if, \nYou require a torrent release I have posted in the past, not seeding,... \nPlease do not hesitate to inform me in any means you find fit to do so. \nTorrent requests also &quot;Always Welcome.&quot; \n\n \nFULL_INFOs \n\n99.99% &gt;&gt;&gt; SYNCED GUARANTEED \n\n&quot;Totally scrutinized / analyzed to be a verified torrent.&quot; \n___________________________________________ \n\nSource : Blu-ray ~ 1080p \n\n \n\nSpoken Language : English \n\nAudio : 6 ~ Channels Only \n\n \nSubs Info : \n\nN/A \n\nAll .srt UTF-8 .idx &amp; .ass subs can be turned On/Off \n_____________________________________ \n--------------------------------------------------------------------------------- \n \nGeneral Metadata \n\nComplete name : Cavemen 2013.1080p.BluRay.5.1.x264 . NVEE.mp4 \nFormat : MPEG-4 \nFormat profile : Base Media \nCodec ID : isom \nFile size : 1.88 GiB \nDuration : 1h 26mn \nOverall bit rate : 3 098 Kbps \nEncoded date : UTC 2015-07-25 22:22:21 \nTagged date : UTC 2015-07-25 22:22:21 \n\n \nVideo \n\nID : 1 \nFormat : AVC \nFormat/Info : Advanced Video Codec \nFormat profile : High@L5 \nFormat settings, CABAC : Yes \nFormat settings, ReFrames : 6 frames \nCodec ID : avc1 \nCodec ID/Info : Advanced Video Coding \nDuration : 1h 26mn \nBit rate : 2 458 Kbps \nMaximum bit rate : 15.0 Mbps \nWidth : 1 920 pixels \nHeight : 800 pixels \nDisplay aspect ratio : 2.40:1 \nFrame rate mode : Constant \nFrame rate : 23.976 fps \nColor space : YUV \nChroma subsampling : 4:2:0 \nBit depth : 8 bits \nScan type : Progressive \nBits/(Pixel*Frame) : 0.067 \nStream size : 1.49 GiB (79%) \nWriting library : x264 core 146 r2538 121396c \n\nEncoded from Physical Blu-ray / Region A \n\n \nAudio \n\nID : 2 \nFormat : AC-3 \nFormat/Info : Audio Coding 3 \nMode extension : CM (complete main) \nFormat settings, Endianness : Big \nCodec ID : ac-3 \nDuration : 1h 26mn \nBit rate mode : Constant \nBit rate : 640 Kbps \nMaximum bit rate : 676 Kbps \nChannel(s) : 6 channels \nChannel positions : Front: L C R, Side: L R, LFE \nSampling rate : 48.0 KHz \nBit depth : 16 bits \nCompression mode : Lossy \nStream size : 397 MiB (21%) \nLanguage : English \nEncoded date : UTC 2015-07-25 22:27:48 \nTagged date : UTC 2015-07-25 22:28:53 \n\nEncoded from Physical Blu-ray 6 Channel audio &quot;Only&quot;. \n\n \n\n \n\n \n\n\n\n\nEnj0y !","torrent":{"xt":"urn:btih:f973eaa7a68ffdb32e5ba2375b70ad4513ceb033","amp;dn":"Cavemen+2013+1080p.BluRay.5.1.x264+.+NVEE","amp;tr":["udp%3A%2F%2Ftracker.openbittorrent.com%3A80","udp%3A%2F%2Fopen.demonii.com%3A1337","udp%3A%2F%2Ftracker.coppersurfer.tk%3A6969","udp%3A%2F%2Fexodus.desync.com%3A6969"],"infoHash":"f973eaa7a68ffdb32e5ba2375b70ad4513ceb033","infoHashBuffer":{"type":"Buffer","data":[249,115,234,167,166,143,253,179,46,91,162,55,91,112,173,69,19,206,176,51]},"announce":[],"urlList":[]}}